<?xml version="1.0" standalone="no"?>
  <!DOCTYPE svg PUBLIC "-//W3C//DTD SVG 1.1//EN" "http://www.w3.org/Graphics/SVG/1.1/DTD/svg11.dtd" >
  <svg>
  <metadata>
  Created by font-carrier
  </metadata>
  <defs>
  <font id="Troglodyte" horiz-adv-x="1218" vert-adv-y="1218" >
    <font-face
      
      font-family="Troglodyte"
      
      font-weight="400"
      
      font-stretch="normal"
      
      units-per-em="862"
      
      ascent="735"
      
      descent="-206"
      
    />
      <missing-glyph />

      

      
      <glyph glyph-name="uni21" unicode="&#x21;" d="M98 261L20 261L20 495L98 495L98 261M98 105L20 105L20 183L98 183L98 105Z"  horiz-adv-x="118" vert-adv-y="862"  />

      
      <glyph glyph-name="uni22" unicode="&#x22;" d="M253 338L175 338L175 494L253 494L253 338M97 338L20 338L20 494L97 494L97 338Z"  horiz-adv-x="273" vert-adv-y="862"  />

      
      <glyph glyph-name="uni23" unicode="&#x23;" d="M331 183L292 183L292 144L214 144L214 183L136 183L136 144L58 144L58 183L20 183L20 261L58 261L58 348L20 348L20 426L58 426L58 456L136 456L136 426L214 426L214 456L292 456L292 426L331 426L331 348L292 348L292 261L331 261L331 183M214 261L214 348L136 348L136 261L214 261Z"  horiz-adv-x="351" vert-adv-y="862"  />

      
      <glyph glyph-name="uni24" unicode="&#x24;" d="M604 222Q604 173 570 139Q536 105 487 105L20 105L20 222L98 222Q97 205 108 194Q119 183 136 183L214 183L214 261L136 261Q88 261 54 295.50Q20 330 20 378Q20 426 54 460.50Q88 495 136 495L604 495L604 378L526 378Q527 395 516 406Q505 417 487 417L448 417L448 339L487 339Q536 339 570 305Q604 271 604 222M527 222Q527 239 515.50 250Q504 261 487 261L448 261L448 183L487 183Q504 183 515.50 194Q527 205 527 222M370 339L370 417L292 417L292 339L370 339M370 183L370 261L292 261L292 183L370 183M214 339L214 417L136 417Q120 417 108.50 405.50Q97 394 97 378Q97 362 108.50 350.50Q120 339 136 339L214 339Z"  horiz-adv-x="624" vert-adv-y="862"  />

      
      <glyph glyph-name="uni25" unicode="&#x25;" d="M900 222Q900 173 866 139Q832 105 783 105L655 105Q606 105 572 139Q538 173 538 222L538 246Q538 295 572 329Q606 363 655 363L783 363Q832 363 866 329Q900 295 900 246L900 222M655 495L366 105L265 105L554 495L655 495M382 354Q382 305 348 271Q314 237 265 237L136 237Q87 237 53.50 271Q20 305 20 354L20 378Q20 427 54 461Q88 495 137 495L265 495Q313 495 347.50 460.50Q382 426 382 378L382 354M822 222L822 246Q822 285 783 285L655 285Q616 285 616 246L616 222Q616 206 627.50 194.50Q639 183 655 183L783 183Q799 183 810.50 194.50Q822 206 822 222M304 354L304 378Q304 394 292.50 405.50Q281 417 265 417L136 417Q100 417 98 378L97 354Q96 338 108 326.50Q120 315 136 315L265 315Q304 315 304 354Z"  horiz-adv-x="920" vert-adv-y="862"  />

      
      <glyph glyph-name="uni26" unicode="&#x26;" d="M604 378Q604 329 570 295Q536 261 487 261L136 261Q120 261 109 249.50Q98 238 98 222Q98 206 109 194.50Q120 183 136 183L449 183Q466 183 477 194Q488 205 487 222L565 222L565 105L136 105Q88 105 54 139.50Q20 174 20 222Q20 267 49 300Q20 333 20 378Q20 426 54 460.50Q88 495 136 495L487 495Q536 495 570 461Q604 427 604 378M526 378Q526 417 487 417L136 417Q120 417 108.50 405.50Q97 394 97 378Q97 362 108.50 350.50Q120 339 136 339L487 339Q526 339 526 378Z"  horiz-adv-x="624" vert-adv-y="862"  />

      
      <glyph glyph-name="uni27" unicode="&#x27;" d="M97 338L20 338L20 494L97 494L97 338Z"  horiz-adv-x="117" vert-adv-y="862"  />

      
      <glyph glyph-name="uni28" unicode="&#x28;" d="M137 55Q89 55 54.50 89.50Q20 124 20 172L20 428Q20 476 54.50 510.50Q89 545 137 545L137 467Q121 467 109.50 455.50Q98 444 98 428L98 172Q98 156 109.50 144.50Q121 133 137 133L137 55Z"  horiz-adv-x="157" vert-adv-y="862"  />

      
      <glyph glyph-name="uni29" unicode="&#x29;" d="M137 172Q137 124 102.50 89.50Q68 55 20 55L20 133Q36 133 47.50 144.50Q59 156 59 172L59 428Q59 444 47.50 455.50Q36 467 20 467L20 545Q68 545 102.50 510.50Q137 476 137 428L137 172Z"  horiz-adv-x="157" vert-adv-y="862"  />

      
      <glyph glyph-name="uni2a" unicode="&#x2a;" d="M307 381L219 311L253 197L162 266L73 197L105 311L17 381L127 383L162 497L198 383L307 381M239 358L180 360L162 418L146 359L85 359L134 321L114 259L162 298L207 262L191 320L239 358Z"  horiz-adv-x="339" vert-adv-y="862"  />

      
      <glyph glyph-name="uni2b" unicode="&#x2b;" d="M332 261L215 261L215 141L137 141L137 261L20 261L20 339L137 339L137 453L215 453L215 339L332 339L332 261Z"  horiz-adv-x="352" vert-adv-y="862"  />

      
      <glyph glyph-name="uni2c" unicode="&#x2c;" d="M136 92L97-5L20-5L66 112L20 112L20 189L136 189L136 92Z"  horiz-adv-x="156" vert-adv-y="862"  />

      
      <glyph glyph-name="uni2d" unicode="&#x2d;" d="M332 261L20 261L20 339L332 339L332 261Z"  horiz-adv-x="352" vert-adv-y="862"  />

      
      <glyph glyph-name="uni2e" unicode="&#x2e;" d="M97 105L20 105L20 183L97 183L97 105Z"  horiz-adv-x="117" vert-adv-y="862"  />

      
      <glyph glyph-name="uni2f" unicode="&#x2f;" d="M409 495L120 105L20 105L309 495L409 495Z"  horiz-adv-x="429" vert-adv-y="862"  />

      
      <glyph glyph-name="uni30" unicode="&#x30;" d="M643 222Q643 173 609 139Q575 105 526 105L137 105Q88 105 54 139Q20 173 20 222L20 378Q20 426 54 460.50Q88 495 136 495L526 495Q575 495 609 461Q643 427 643 378L643 222M565 222L565 378Q565 417 526 417L136 417Q120 417 109 405.50Q98 394 98 378L98 222Q98 206 109 194.50Q120 183 136 183L526 183Q565 183 565 222M487 261L175 261L175 339L487 339L487 261Z"  horiz-adv-x="663" vert-adv-y="862"  />

      
      <glyph glyph-name="uni31" unicode="&#x31;" d="M175 105L20 105L20 183L58 183L58 495L136 495L136 183L175 183L175 105Z"  horiz-adv-x="195" vert-adv-y="862"  />

      
      <glyph glyph-name="uni32" unicode="&#x32;" d="M604 105L20 105L20 222Q20 270 54 304.50Q88 339 136 339L487 339Q526 339 526 378Q526 417 487 417L136 417Q97 417 97 378L20 378L20 495L487 495Q536 495 570 461Q604 427 604 378Q604 329 570 295Q536 261 487 261L136 261Q120 261 108.50 249.50Q97 238 97 222L97 183L487 183Q527 183 526 222L604 222L604 105Z"  horiz-adv-x="624" vert-adv-y="862"  />

      
      <glyph glyph-name="uni33" unicode="&#x33;" d="M604 222Q604 173 570 139Q536 105 487 105L20 105L20 222L97 222Q97 183 136 183L487 183Q526 183 526 222Q526 261 487 261L136 261L136 339L487 339Q526 339 526 378Q526 417 487 417L136 417Q97 417 97 378L20 378L20 495L487 495Q536 495 570 461Q604 427 604 378Q604 333 575 300Q604 267 604 222Z"  horiz-adv-x="624" vert-adv-y="862"  />

      
      <glyph glyph-name="uni34" unicode="&#x34;" d="M604 261L370 261L370 105L292 105L292 261L20 261L20 495L98 495L98 339L292 339L292 456L370 456L370 339L488 339Q527 339 526 378L604 378L604 261Z"  horiz-adv-x="624" vert-adv-y="862"  />

      
      <glyph glyph-name="uni35" unicode="&#x35;" d="M604 222Q604 173 570 139Q536 105 487 105L20 105L20 222L97 222Q97 183 136 183L487 183Q526 183 526 222Q526 261 487 261L20 261L20 495L604 495L604 378L526 378Q526 417 488 417L97 417L97 339L487 339Q536 339 570 305Q604 271 604 222Z"  horiz-adv-x="624" vert-adv-y="862"  />

      
      <glyph glyph-name="uni36" unicode="&#x36;" d="M604 222Q604 173 570 139Q536 105 487 105L136 105Q88 105 54 139.50Q20 174 20 222L20 378Q20 426 54 460.50Q88 495 136 495L604 495L604 378L526 378Q526 417 487 417L136 417Q120 417 109 405.50Q98 394 98 378L98 332Q117 339 136 339L487 339Q536 339 570 305Q604 271 604 222M526 222Q526 261 487 261L136 261Q120 261 109 249.50Q98 238 98 222Q98 206 109 194.50Q120 183 136 183L487 183Q526 183 526 222Z"  horiz-adv-x="624" vert-adv-y="862"  />

      
      <glyph glyph-name="uni37" unicode="&#x37;" d="M596 460L315 105L214 105L460 417L136 417Q98 417 98 378L20 378L20 495L584 495L596 460Z"  horiz-adv-x="616" vert-adv-y="862"  />

      
      <glyph glyph-name="uni38" unicode="&#x38;" d="M604 222Q604 173 570 139Q536 105 487 105L136 105Q88 105 54 139.50Q20 174 20 222Q20 267 49 300Q20 333 20 378Q20 426 54 460.50Q88 495 136 495L487 495Q536 495 570 461Q604 427 604 378Q604 333 575 300Q604 267 604 222M526 378Q526 417 487 417L136 417Q120 417 108.50 405.50Q97 394 97 378Q97 361 108.50 350Q120 339 137 339L487 339Q526 339 526 378M526 222Q526 261 487 261L136 261Q120 261 109 249.50Q98 238 98 222Q98 206 109 194.50Q120 183 136 183L487 183Q526 183 526 222Z"  horiz-adv-x="624" vert-adv-y="862"  />

      
      <glyph glyph-name="uni39" unicode="&#x39;" d="M604 222Q604 173 570 139Q536 105 487 105L20 105L20 222L98 222Q98 183 137 183L487 183Q526 183 526 222L526 268Q507 261 487 261L137 261Q88 261 54 295Q20 329 20 378Q20 427 54 461Q88 495 137 495L487 495Q536 495 570 461Q604 427 604 378L604 222M526 378Q526 417 487 417L136 417Q120 417 108.50 405.50Q97 394 97 378Q97 362 108.50 350.50Q120 339 136 339L487 339Q526 339 526 378Z"  horiz-adv-x="624" vert-adv-y="862"  />

      
      <glyph glyph-name="uni3a" unicode="&#x3a;" d="M97 315L20 315L20 393L97 393L97 315M97 105L20 105L20 183L97 183L97 105Z"  horiz-adv-x="117" vert-adv-y="862"  />

      
      <glyph glyph-name="uni3b" unicode="&#x3b;" d="M117 315L40 315L40 393L117 393L117 315M136 92L97-5L20-5L66 112L20 112L20 189L136 189L136 92Z"  horiz-adv-x="156" vert-adv-y="862"  />

      
      <glyph glyph-name="uni3c" unicode="&#x3c;" d="M379 105L239 105L20 263L20 356L243 495L379 495L95 310L379 105Z"  horiz-adv-x="399" vert-adv-y="862"  />

      
      <glyph glyph-name="uni3d" unicode="&#x3d;" d="M332 339L20 339L20 417L332 417L332 339M332 183L20 183L20 261L332 261L332 183Z"  horiz-adv-x="352" vert-adv-y="862"  />

      
      <glyph glyph-name="uni3e" unicode="&#x3e;" d="M379 263L160 105L20 105L304 310L20 495L156 495L379 356L379 263Z"  horiz-adv-x="399" vert-adv-y="862"  />

      
      <glyph glyph-name="uni3f" unicode="&#x3f;" d="M604 378Q604 329 570 295Q536 261 487 261L215 261L215 339L487 339Q526 339 526 378Q526 417 487 417L136 417Q97 417 98 378L20 378L20 495L487 495Q536 495 570 461Q604 427 604 378M293 105L215 105L215 183L293 183L293 105Z"  horiz-adv-x="624" vert-adv-y="862"  />

      
      <glyph glyph-name="uni40" unicode="&#x40;" d="M566 105L488 105L488 126Q451 105 410 105L293 105Q244 105 210 139Q176 173 176 222Q176 271 210 305Q244 339 293 339L488 339L488 378Q488 394 476.50 405.50Q465 417 449 417L136 417Q120 417 109 405.50Q98 394 98 378L97 222Q97 206 108.50 194.50Q120 183 136 183L136 105Q88 105 54 139.50Q20 174 20 222L20 378Q20 427 54 461Q88 495 137 495L449 495Q497 495 531.50 460.50Q566 426 566 378L566 105M488 261L293 261Q254 261 254 222Q254 183 293 183L410 183Q442 183 465 206Q488 229 488 261Z"  horiz-adv-x="586" vert-adv-y="862"  />

      
      <glyph glyph-name="uni41" unicode="&#x41;" d="M643 105L566 105L566 261L98 261L98 105L20 105L20 378Q20 426 54 460.50Q88 495 136 495L527 495Q575 495 609 460.50Q643 426 643 378L643 105M566 339L566 378Q566 394 554.50 405.50Q543 417 527 417L136 417Q120 417 109 405.50Q98 394 98 378L98 339L566 339Z"  horiz-adv-x="663" vert-adv-y="862"  />

      
      <glyph glyph-name="uni42" unicode="&#x42;" d="M604 222Q604 173 570 139Q536 105 487 105L20 105L20 495L487 495Q536 495 570 461Q604 427 604 378Q604 333 575 300Q604 267 604 222M527 378Q527 395 515.50 406Q504 417 487 417L98 417L98 339L488 339Q504 339 515.50 350.50Q527 362 527 378M526 222Q526 238 515 249.50Q504 261 488 261L98 261L98 183L487 183Q526 183 526 222Z"  horiz-adv-x="624" vert-adv-y="862"  />

      
      <glyph glyph-name="uni43" unicode="&#x43;" d="M643 105L136 105Q88 105 54 139.50Q20 174 20 222L20 378Q20 426 54 460.50Q88 495 136 495L643 495L643 378L565 378Q565 417 526 417L136 417Q120 417 108.50 405.50Q97 394 97 378L97 222Q97 206 108.50 194.50Q120 183 136 183L526 183Q565 183 565 222L643 222L643 105Z"  horiz-adv-x="663" vert-adv-y="862"  />

      
      <glyph glyph-name="uni44" unicode="&#x44;" d="M603 222Q603 173 569 139Q535 105 486 105L20 105L20 494L486 494Q535 494 569 460Q603 426 603 377L603 222M525 222L525 377Q525 393 513.50 404.50Q502 416 486 416L97 416L97 183L486 183Q502 183 513.50 194.50Q525 206 525 222Z"  horiz-adv-x="623" vert-adv-y="862"  />

      
      <glyph glyph-name="uni45" unicode="&#x45;" d="M604 105L20 105L20 495L604 495L604 378L526 378Q526 417 488 417L98 417L98 339L488 339L488 261L98 261L98 183L488 183Q527 183 526 222L604 222L604 105Z"  horiz-adv-x="624" vert-adv-y="862"  />

      
      <glyph glyph-name="uni46" unicode="&#x46;" d="M604 378L526 378Q526 417 488 417L98 417L98 339L487 339L487 261L98 261L98 105L20 105L20 495L604 495L604 378Z"  horiz-adv-x="624" vert-adv-y="862"  />

      
      <glyph glyph-name="uni47" unicode="&#x47;" d="M643 222Q643 173 609 139Q575 105 526 105L137 105Q88 105 54 139Q20 173 20 222L20 378Q20 427 54 461Q88 495 137 495L643 495L643 378L565 378Q565 417 527 417L137 417Q98 417 98 378L98 222Q98 183 137 183L526 183Q565 183 565 222L565 261L254 261L254 339L643 339L643 222Z"  horiz-adv-x="663" vert-adv-y="862"  />

      
      <glyph glyph-name="uni48" unicode="&#x48;" d="M604 105L526 105L526 261L98 261L98 105L20 105L20 495L98 495L98 339L526 339L526 495L604 495L604 105Z"  horiz-adv-x="624" vert-adv-y="862"  />

      
      <glyph glyph-name="uni49" unicode="&#x49;" d="M97 105L20 105L20 494L97 494L97 105Z"  horiz-adv-x="117" vert-adv-y="862"  />

      
      <glyph glyph-name="uni4a" unicode="&#x4a;" d="M642 222Q642 173 608 139Q574 105 525 105L136 105Q87 105 53.50 139Q20 173 20 222L20 299L97 299L97 222Q97 206 108.50 194.50Q120 183 136 183L525 183Q541 183 552.50 194.50Q564 206 564 222L564 494L642 494L642 222Z"  horiz-adv-x="662" vert-adv-y="862"  />

      
      <glyph glyph-name="uni4b" unicode="&#x4b;" d="M604 105L526 105L526 183Q526 215 503.50 238Q481 261 449 261L98 261L98 105L20 105L20 495L98 495L98 339L449 339Q481 339 503.50 362Q526 385 526 417L526 495L604 495L604 417Q604 347 552 300Q604 253 604 183L604 105Z"  horiz-adv-x="624" vert-adv-y="862"  />

      
      <glyph glyph-name="uni4c" unicode="&#x4c;" d="M603 105L20 105L20 494L97 494L97 183L486 183Q525 183 525 222L603 222L603 105Z"  horiz-adv-x="623" vert-adv-y="862"  />

      
      <glyph glyph-name="uni4d" unicode="&#x4d;" d="M837 105L759 105L759 377Q759 393 748 404.50Q737 416 721 416L526 416Q493 416 472 394Q451 372 448 338L447 338L447 106L370 106L370 338L371 338Q371 371 348.50 393.50Q326 416 293 416L293 417L97 417L97 106L20 106L20 495L293 495L293 494Q363 494 409 441Q456 494 526 494L721 494Q770 494 803.50 460Q837 426 837 377L837 105Z"  horiz-adv-x="857" vert-adv-y="862"  />

      
      <glyph glyph-name="uni4e" unicode="&#x4e;" d="M604 105L526 105L526 378Q526 394 514.50 405.50Q503 417 487 417L97 417L97 105L20 105L20 495L487 495Q536 495 570 461Q604 427 604 378L604 105Z"  horiz-adv-x="624" vert-adv-y="862"  />

      
      <glyph glyph-name="uni4f" unicode="&#x4f;" d="M644 222Q644 174 609.50 139.50Q575 105 527 105L137 105Q88 105 54 139Q20 173 20 222L20 378Q20 427 54 461Q88 495 137 495L527 495Q575 495 609.50 460.50Q644 426 644 378L644 222M566 222L566 378Q566 394 554.50 405.50Q543 417 527 417L136 417Q120 417 109 405.50Q98 394 98 378L98 222Q98 183 137 183L527 183Q543 183 554.50 194.50Q566 206 566 222Z"  horiz-adv-x="664" vert-adv-y="862"  />

      
      <glyph glyph-name="uni50" unicode="&#x50;" d="M604 378Q604 329 570 295Q536 261 487 261L98 261L98 105L20 105L20 495L487 495Q536 495 570 461Q604 427 604 378M526 378Q526 417 487 417L98 417L98 339L487 339Q526 339 526 378Z"  horiz-adv-x="624" vert-adv-y="862"  />

      
      <glyph glyph-name="uni51" unicode="&#x51;" d="M643 222Q643 174 608.50 139.50Q574 105 526 105L448 105L448 183L526 183Q542 183 553.50 194.50Q565 206 565 222L565 378Q565 394 553.50 405.50Q542 417 526 417L136 417Q120 417 108.50 405.50Q97 394 97 378L97 222Q97 206 108.50 194.50Q120 183 136 183L292 183L292 222Q292 270 326.50 304.50Q361 339 409 339L487 339L487 261L409 261Q393 261 381.50 249.50Q370 238 370 222L370 105L136 105Q88 105 54 139.50Q20 174 20 222L20 378Q20 426 54 460.50Q88 495 136 495L526 495Q575 495 609 461Q643 427 643 378L643 222Z"  horiz-adv-x="663" vert-adv-y="862"  />

      
      <glyph glyph-name="uni52" unicode="&#x52;" d="M604 105L526 105L526 222Q526 261 487 261L98 261L98 105L20 105L20 495L487 495Q536 495 570 461Q604 427 604 378Q604 333 575 300Q604 267 604 222L604 105M526 378Q526 417 487 417L98 417L98 339L487 339Q526 339 526 378Z"  horiz-adv-x="624" vert-adv-y="862"  />

      
      <glyph glyph-name="uni53" unicode="&#x53;" d="M604 222Q604 173 570 139Q536 105 487 105L20 105L20 222L97 222Q97 183 136 183L487 183Q503 183 514.50 194.50Q526 206 526 222Q526 238 514.50 249.50Q503 261 487 261L136 261Q88 261 54 295.50Q20 330 20 378Q20 426 54 460.50Q88 495 136 495L604 495L604 378L526 378Q526 417 487 417L136 417Q120 417 108.50 405.50Q97 394 97 378Q97 362 108.50 350.50Q120 339 136 339L487 339Q536 339 570 305Q604 271 604 222Z"  horiz-adv-x="624" vert-adv-y="862"  />

      
      <glyph glyph-name="uni54" unicode="&#x54;" d="M643 378L565 378Q565 417 526 417L370 417L370 105L292 105L292 417L136 417Q97 417 97 378L20 378L20 495L643 495L643 378Z"  horiz-adv-x="663" vert-adv-y="862"  />

      
      <glyph glyph-name="uni55" unicode="&#x55;" d="M643 222Q643 174 608.50 139.50Q574 105 526 105L136 105Q88 105 54 139.50Q20 174 20 222L20 495L97 495L97 222Q97 206 108.50 194.50Q120 183 136 183L526 183Q542 183 553.50 194.50Q565 206 565 222L565 495L643 495L643 222Z"  horiz-adv-x="663" vert-adv-y="862"  />

      
      <glyph glyph-name="uni56" unicode="&#x56;" d="M682 495L393 105L300 105L20 495L120 495L347 180L581 495L682 495Z"  horiz-adv-x="702" vert-adv-y="862"  />

      
      <glyph glyph-name="uni57" unicode="&#x57;" d="M796 495L617 105L544 105L408 402L271 105L198 105L20 495L97 495L235 182L372 495L443 495L581 182L718 495L796 495Z"  horiz-adv-x="816" vert-adv-y="862"  />

      
      <glyph glyph-name="uni58" unicode="&#x58;" d="M587 105L474 105L303 267L133 105L20 105L225 300L20 495L133 495L303 333L474 495L587 495L381 300L587 105Z"  horiz-adv-x="607" vert-adv-y="862"  />

      
      <glyph glyph-name="uni59" unicode="&#x59;" d="M587 495L344 265L344 105L266 105L266 261L20 495L133 495L303 333L474 495L587 495Z"  horiz-adv-x="607" vert-adv-y="862"  />

      
      <glyph glyph-name="uni5a" unicode="&#x5a;" d="M605 494L236 183L488 183Q526 183 526 222L604 222L604 105L20 105L385 417L136 417Q97 417 97 378L20 378L20 495L605 494Z"  horiz-adv-x="625" vert-adv-y="862"  />

      
      <glyph glyph-name="uni5b" unicode="&#x5b;" d="M176 55L20 55L20 545L176 545L176 467L98 467L98 133L176 133L176 55Z"  horiz-adv-x="196" vert-adv-y="862"  />

      
      <glyph glyph-name="uni5c" unicode="&#x5c;" d="M409 105L309 105L20 495L120 495L409 105Z"  horiz-adv-x="429" vert-adv-y="862"  />

      
      <glyph glyph-name="uni5d" unicode="&#x5d;" d="M176 55L20 55L20 133L98 133L98 467L20 467L20 545L176 545L176 55Z"  horiz-adv-x="196" vert-adv-y="862"  />

      
      <glyph glyph-name="uni5e" unicode="&#x5e;" d="M341 339L240 339L180 420L121 339L20 339L133 495L225 495L341 339Z"  horiz-adv-x="361" vert-adv-y="862"  />

      
      <glyph glyph-name="uni5f" unicode="&#x5f;" d="M332-109L20-109L20-31L332-31L332-109Z"  horiz-adv-x="352" vert-adv-y="862"  />

      
      <glyph glyph-name="uni60" unicode="&#x60;" d="M215 339L137 339L20 495L98 495L215 339Z"  horiz-adv-x="235" vert-adv-y="862"  />

      
      <glyph glyph-name="uni61" unicode="&#x61;" d="M503 103L422 103L422 337L139 337Q122 337 110.50 325.50Q99 314 99 298L99 220Q99 204 110.50 192.50Q122 181 139 181L341 181L341 103L139 103Q89 103 53.50 137Q18 171 18 220L18 298Q18 346 53.50 380Q89 414 139 414L503 414L503 103Z"  horiz-adv-x="521" vert-adv-y="862"  />

      
      <glyph glyph-name="uni62" unicode="&#x62;" d="M503 220Q503 172 467.50 137.50Q432 103 382 103L18 103L18 492L99 492L99 394Q136 414 180 414L382 414Q432 414 467.50 380Q503 346 503 298L503 220M422 220L422 298Q422 314 410.50 325.50Q399 337 382 337L180 337Q146 337 122.50 314Q99 291 99 259L99 181L382 181Q399 181 410.50 192.50Q422 204 422 220Z"  horiz-adv-x="521" vert-adv-y="862"  />

      
      <glyph glyph-name="uni63" unicode="&#x63;" d="M503 103L139 103Q89 103 53.50 137Q18 171 18 220L18 298Q18 346 53.50 380Q89 414 139 414L503 414L503 298L422 298Q422 337 382 337L139 337Q122 337 110.50 325.50Q99 314 99 298L99 220Q99 204 110.50 192.50Q122 181 139 181L382 181Q400 181 411 192Q422 203 422 220L503 220L503 103Z"  horiz-adv-x="521" vert-adv-y="862"  />

      
      <glyph glyph-name="uni64" unicode="&#x64;" d="M503 103L139 103Q89 103 53.50 137.50Q18 172 18 220L18 298Q18 346 53.50 380Q89 414 139 414L341 414Q385 414 422 394L422 492L503 492L503 103M422 181L422 259Q422 291 398.50 314Q375 337 341 337L139 337Q122 337 110.50 325.50Q99 314 99 298L99 220Q99 204 110.50 192.50Q122 181 139 181L422 181Z"  horiz-adv-x="521" vert-adv-y="862"  />

      
      <glyph glyph-name="uni65" unicode="&#x65;" d="M503 181Q491 146 459.50 124.50Q428 103 389 103L139 103Q89 103 53.50 137Q18 171 18 220L18 298Q18 346 53.50 380Q89 414 139 414L402 414Q444 414 473.50 385.50Q503 357 503 317Q503 277 473.50 248.50Q444 220 402 220L99 220Q99 204 110.50 192.50Q122 181 139 181L503 181M422 317Q422 337 402 337L139 337Q122 337 110.50 325.50Q99 314 99 298L402 298Q422 298 422 317Z"  horiz-adv-x="521" vert-adv-y="862"  />

      
      <glyph glyph-name="uni66" unicode="&#x66;" d="M422 376L341 376Q341 392 329.50 403Q318 414 301 414L139 414Q122 414 110.50 403Q99 392 99 376L99 299L274 299L274 221L99 221L99 103L18 103L18 376Q18 424 53.50 458Q89 492 139 492L301 492Q351 492 386.50 458Q422 424 422 376Z"  horiz-adv-x="440" vert-adv-y="862"  />

      
      <glyph glyph-name="uni67" unicode="&#x67;" d="M503 103Q503 55 468 20.50Q433-14 382-14L18-14L18 64L382 64Q399 64 410.50 75.50Q422 87 422 103L422 124Q385 103 341 103L139 103Q89 103 53.50 137Q18 171 18 220L18 298Q18 346 53.50 380Q89 414 139 414L341 414Q408 414 455.50 368.50Q503 323 503 259L503 103M422 259Q422 291 398.50 314Q375 337 341 337L139 337Q122 337 110.50 325.50Q99 314 99 298L99 220Q99 204 110.50 192.50Q122 181 139 181L342 181Q375 181 398.50 203.50Q422 226 422 259Z"  horiz-adv-x="521" vert-adv-y="862"  />

      
      <glyph glyph-name="uni68" unicode="&#x68;" d="M503 103L422 103L422 298Q422 314 410.50 325.50Q399 337 382 337L180 337Q146 337 122.50 314Q99 291 99 259L99 103L18 103L18 492L99 492L99 394Q136 414 180 414L382 414Q432 414 467.50 380Q503 346 503 298L503 103Z"  horiz-adv-x="521" vert-adv-y="862"  />

      
      <glyph glyph-name="uni69" unicode="&#x69;" d="M99 453L18 453L18 492L99 492L99 453M99 103L18 103L18 414L99 414L99 103Z"  horiz-adv-x="116" vert-adv-y="862"  />

      
      <glyph glyph-name="uni6a" unicode="&#x6a;" d="M260 453L180 453L180 492L260 492L260 453M260 103Q260 55 225 20.50Q190-14 139-14L18-14L18 64L139 64Q156 64 168 75.50Q180 87 180 103L180 414L260 414L260 103Z"  horiz-adv-x="278" vert-adv-y="862"  />

      
      <glyph glyph-name="uni6b" unicode="&#x6b;" d="M503 103L422 103L422 142Q422 174 398.50 197Q375 220 342 220L99 220L99 103L18 103L18 492L99 492L99 298L341 298Q375 298 398.50 320.50Q422 343 422 376L422 414L503 414L503 376Q503 305 449 259Q503 212 503 142L503 103Z"  horiz-adv-x="521" vert-adv-y="862"  />

      
      <glyph glyph-name="uni6c" unicode="&#x6c;" d="M99 103L18 103L18 492L99 492L99 103Z"  horiz-adv-x="116" vert-adv-y="862"  />

      
      <glyph glyph-name="uni6d" unicode="&#x6d;" d="M706 102L625 102L625 298Q625 314 613 325.50Q601 337 584 337L463 337Q428 337 406.50 315Q385 293 382 259L381 259L381 103L300 103L300 259L301 259Q301 291 277 314Q253 337 220 337L220 338L99 338L99 103L18 103L18 416L220 416L220 414Q293 414 341 362Q390 414 463 414L584 414Q635 414 670.50 380.50Q706 347 706 298L706 102Z"  horiz-adv-x="723" vert-adv-y="862"  />

      
      <glyph glyph-name="uni6e" unicode="&#x6e;" d="M422 260L421 260L421 104L340 104L340 260L341 260Q341 292 317.50 315Q294 338 260 338L260 339L99 339L99 104L18 104L18 417L260 417L260 416Q327 416 374.50 370Q422 324 422 260Z"  horiz-adv-x="440" vert-adv-y="862"  />

      
      <glyph glyph-name="uni6f" unicode="&#x6f;" d="M503 220Q503 171 467.50 137Q432 103 382 103L139 103Q89 103 53.50 137Q18 171 18 220L18 298Q18 346 53 380Q88 414 139 414L382 414Q433 414 468 380Q503 346 503 298L503 220M422 220L422 298Q422 314 410.50 325.50Q399 337 382 337L139 337Q122 337 110.50 325.50Q99 314 99 298L99 220Q99 204 110.50 192.50Q122 181 139 181L382 181Q399 181 410.50 192.50Q422 204 422 220Z"  horiz-adv-x="521" vert-adv-y="862"  />

      
      <glyph glyph-name="uni70" unicode="&#x70;" d="M481 219Q481 170 447 135.50Q413 101 365 101L172 101Q131 101 95 122L95-16L18-16L18 414L365 414Q413 414 447 379.50Q481 345 481 297L481 219M404 219L404 297Q404 313 392.50 324.50Q381 336 365 336L95 336L95 257Q95 225 117.50 202Q140 179 172 179L365 179Q381 179 392.50 190.50Q404 202 404 219Z"  horiz-adv-x="499" vert-adv-y="862"  />

      
      <glyph glyph-name="uni71" unicode="&#x71;" d="M481-16L404-16L404 122Q368 101 327 101L133 101Q85 101 51.50 135.50Q18 170 18 219L18 297Q18 345 51.50 379.50Q85 414 133 414L481 414L481-16M404 336L133 336Q117 336 106 324.50Q95 313 95 297L95 219Q95 202 106 190.50Q117 179 133 179L327 179Q358 179 381 202Q404 225 404 257L404 336Z"  horiz-adv-x="499" vert-adv-y="862"  />

      
      <glyph glyph-name="uni72" unicode="&#x72;" d="M404 258L326 258Q326 290 303.50 313Q281 336 249 336L249 337L95 337L95 101L18 101L18 415L249 415L249 414Q313 414 358.50 368Q404 322 404 258Z"  horiz-adv-x="421" vert-adv-y="862"  />

      
      <glyph glyph-name="uni73" unicode="&#x73;" d="M481 199Q481 159 453 130Q425 101 386 101L133 101Q97 101 67 122.50Q37 144 24 179L384 180Q404 180 404 199Q404 219 384 219L114 219Q74 219 46 247.50Q18 276 18 316Q18 357 46 385.50Q74 414 114 414L372 414Q409 414 439 392.50Q469 371 481 336L114 336Q95 336 95 316Q95 297 114 297L386 297Q425 297 453 268Q481 239 481 199Z"  horiz-adv-x="499" vert-adv-y="862"  />

      
      <glyph glyph-name="uni74" unicode="&#x74;" d="M249 336L95 336L95 101L18 101L18 492L95 492L95 414L249 414L249 336Z"  horiz-adv-x="267" vert-adv-y="862"  />

      
      <glyph glyph-name="uni75" unicode="&#x75;" d="M442 219Q442 170 408 135.50Q374 101 327 101L133 101Q85 101 51.50 135.50Q18 170 18 219L18 414L95 414L95 219Q95 202 106 191Q117 180 133 180L327 180Q342 180 353.50 191Q365 202 365 219L365 414L442 414L442 219Z"  horiz-adv-x="460" vert-adv-y="862"  />

      
      <glyph glyph-name="uni76" unicode="&#x76;" d="M526 414L313 101L291 101L291 101L221 101L18 414L117 414L268 176L426 414L526 414Z"  horiz-adv-x="544" vert-adv-y="862"  />

      
      <glyph glyph-name="uni77" unicode="&#x77;" d="M713 414L565 102L542 102L542 101L473 101L364 334L256 105L233 105L233 105L164 105L18 418L95 418L211 179L326 418L404 418L402 414L404 414L520 176L635 414L713 414Z"  horiz-adv-x="730" vert-adv-y="862"  />

      
      <glyph glyph-name="uni78" unicode="&#x78;" d="M498 101L386 101L258 224L130 101L18 101L181 258L18 414L130 414L258 291L386 414L498 414L335 258L498 101Z"  horiz-adv-x="516" vert-adv-y="862"  />

      
      <glyph glyph-name="uni79" unicode="&#x79;" d="M442 101Q442 53 408 18.50Q374-16 327-16L18-16L18 62L327 62Q342 62 353.50 73.50Q365 85 365 101L365 122Q329 101 288 101L133 101Q85 101 51.50 135.50Q18 170 18 219L18 414L95 414L95 219Q95 202 106 190.50Q117 179 133 179L288 179Q320 179 342.50 202Q365 225 365 258L365 414L442 414L442 101Z"  horiz-adv-x="460" vert-adv-y="862"  />

      
      <glyph glyph-name="uni7a" unicode="&#x7a;" d="M404 101L18 101L233 336L18 336L18 414L404 414L188 179L404 179L404 101Z"  horiz-adv-x="421" vert-adv-y="862"  />

      
      <glyph glyph-name="uni7b" unicode="&#x7b;" d="M137 55Q89 55 54.50 89.50Q20 124 20 172L20 178Q20 231 60 266L26 300L60 334Q20 369 20 422L20 428Q20 476 54.50 510.50Q89 545 137 545L137 467Q121 467 109.50 455.50Q98 444 98 428L98 422Q98 406 109.50 394.50Q121 383 137 383L137 217Q121 217 109.50 205.50Q98 194 98 178L98 172Q98 156 109.50 144.50Q121 133 137 133L137 55Z"  horiz-adv-x="157" vert-adv-y="862"  />

      
      <glyph glyph-name="uni7c" unicode="&#x7c;" d="M106 55L29 55L29 544L106 544L106 55Z"  horiz-adv-x="135" vert-adv-y="862"  />

      
      <glyph glyph-name="uni7d" unicode="&#x7d;" d="M137 172Q137 124 102.50 89.50Q68 55 20 55L20 133Q36 133 47.50 144.50Q59 156 59 172L59 178Q59 194 47.50 205.50Q36 217 20 217L20 383Q36 383 47.50 394.50Q59 406 59 422L59 428Q59 444 47.50 455.50Q36 467 20 467L20 545Q68 545 102.50 510.50Q137 476 137 428L137 422Q137 369 97 334L131 300L97 266Q137 231 137 178L137 172Z"  horiz-adv-x="157" vert-adv-y="862"  />

      
      <glyph glyph-name="uni7e" unicode="&#x7e;" d="M410 300L332 300L332 378Q332 394 320.50 405.50Q309 417 293 417Q277 417 265.50 405.50Q254 394 254 378Q254 329 220 295Q186 261 137 261Q88 261 54 295Q20 329 20 378L20 456L98 456L98 378Q98 362 109.50 350.50Q121 339 137 339Q153 339 164.50 350.50Q176 362 176 378Q176 427 210 461Q244 495 293 495Q341 495 375.50 460.50Q410 426 410 378L410 300Z"  horiz-adv-x="430" vert-adv-y="862"  />

      
      <glyph glyph-name="uni201A" unicode="&#x201A;" d="M136 92L97-5L20-5L66 112L20 112L20 189L136 189L136 92Z"  horiz-adv-x="156" vert-adv-y="862"  />

      
      <glyph glyph-name="uni0192" unicode="&#x0192;" d="M431 405Q431 390 428 377L410 300L333 300L351 377Q352 381 352 386Q352 416 321 416L232 416Q216 416 202 404.50Q188 393 184 377L157 259L251 259L233 181L139 181L78-89Q67-138 25.50-172Q-16-206-66-206L-135-206Q-175-206-201.50-181.50Q-228-157-228-117Q-228-107-224-89L-207-12L-130-12L-147-89Q-148-94-148-98Q-148-128-117-128L-48-128Q-32-128-18-116.50Q-4-105 0-89L61 181L21 181L39 259L79 259L106 377Q117 426 158.50 460Q200 494 250 494L339 494Q379 494 405 469.50Q431 445 431 405Z"  horiz-adv-x="444" vert-adv-y="862"  />

      
      <glyph glyph-name="uni201E" unicode="&#x201E;" d="M296 92L257-5L180-5L226 112L180 112L180 189L296 189L296 92M136 92L97-5L20-5L66 112L20 112L20 189L136 189L136 92Z"  horiz-adv-x="329" vert-adv-y="862"  />

      
      <glyph glyph-name="uni2026" unicode="&#x2026;" d="M617 105L540 105L540 183L617 183L617 105M357 105L280 105L280 183L357 183L357 105M97 105L20 105L20 183L97 183L97 105Z"  horiz-adv-x="634" vert-adv-y="862"  />

      
      <glyph glyph-name="uni2020" unicode="&#x2020;" d="M332 371L214 371L214 105L137 105L137 371L20 371L20 449L137 449L137 494L214 494L214 449L332 449L332 371Z"  horiz-adv-x="351" vert-adv-y="862"  />

      
      <glyph glyph-name="uni2021" unicode="&#x2021;" d="M326 151L208 151L208 105L131 105L131 151L14 151L14 229L131 229L131 371L14 371L14 449L131 449L131 494L208 494L208 449L326 449L326 371L208 371L208 229L326 229L326 151Z"  horiz-adv-x="339" vert-adv-y="862"  />

      
      <glyph glyph-name="uni02C6" unicode="&#x02C6;" d="M341 339L240 339L180 420L121 339L20 339L133 495L225 495L341 339Z"  horiz-adv-x="361" vert-adv-y="862"  />

      
      <glyph glyph-name="uni2030" unicode="&#x2030;" d="M1156 222Q1156 173 1122 139Q1088 105 1039 105L961 105Q912 105 878 139Q844 173 844 222L844 246Q844 296 877.50 329.50Q911 363 961 363L1039 363Q1088 363 1122 329Q1156 295 1156 246L1156 222M815 222Q815 173 781 139Q747 105 698 105L620 105Q571 105 537 139Q503 173 503 222L503 246Q503 295 537 329Q571 363 620 363L698 363Q747 363 781 329Q815 295 815 246L815 222M620 495L331 105L230 105L519 495L620 495M347 354Q347 305 313 271Q279 237 230 237L151 237Q102 237 68.50 271Q35 305 35 354L35 378Q35 427 69 461Q103 495 152 495L230 495Q279 495 313 461Q347 427 347 378L347 354M1078 222L1078 246Q1078 285 1039 285L961 285Q922 285 922 246L922 222Q922 183 961 183L1039 183Q1055 183 1066.50 194.50Q1078 206 1078 222M737 222L737 246Q737 285 698 285L620 285Q581 285 581 246L581 222Q581 206 592.50 194.50Q604 183 620 183L698 183Q737 183 737 222M269 354L269 378Q269 417 230 417L151 417Q115 417 113 378L112 354Q111 338 123 326.50Q135 315 151 315L230 315Q269 315 269 354Z"  horiz-adv-x="1191" vert-adv-y="862"  />

      
      <glyph glyph-name="uni0160" unicode="&#x0160;" d="M473 705L357 549L265 549L152 705L253 705L311 624L372 705L473 705M604 222Q604 173 570 139Q536 105 487 105L20 105L20 222L97 222Q97 183 136 183L487 183Q503 183 514.50 194.50Q526 206 526 222Q526 238 514.50 249.50Q503 261 487 261L136 261Q88 261 54 295.50Q20 330 20 378Q20 426 54 460.50Q88 495 136 495L604 495L604 378L526 378Q526 417 487 417L136 417Q120 417 108.50 405.50Q97 394 97 378Q97 362 108.50 350.50Q120 339 136 339L487 339Q536 339 570 305Q604 271 604 222Z"  horiz-adv-x="624" vert-adv-y="862"  />

      
      <glyph glyph-name="uni2039" unicode="&#x2039;" d="M176 135L20 247L20 340L176 456L176 378L95 294L176 213L176 135Z"  horiz-adv-x="196" vert-adv-y="862"  />

      
      <glyph glyph-name="uni0152" unicode="&#x0152;" d="M1054 105L520 105L520 113Q500 105 477 105L137 105Q88 105 54 139Q20 173 20 222L20 378Q20 427 54 461Q88 495 137 495L477 495Q500 495 520 487L520 495L1054 495L1054 378L976 378Q976 417 938 417L598 417L598 339L938 339L938 261L598 261L598 183L938 183Q977 183 976 222L1054 222L1054 105M516 222L516 378Q516 394 504.50 405.50Q493 417 477 417L136 417Q120 417 109 405.50Q98 394 98 378L98 222Q98 183 137 183L477 183Q493 183 504.50 194.50Q516 206 516 222Z"  horiz-adv-x="1075" vert-adv-y="862"  />

      
      <glyph glyph-name="uni2018" unicode="&#x2018;" d="M136 303L20 303L20 400L58 497L136 497L90 380L136 380L136 303Z"  horiz-adv-x="156" vert-adv-y="862"  />

      
      <glyph glyph-name="uni2019" unicode="&#x2019;" d="M136 400L97 303L20 303L66 419L20 419L20 497L136 497L136 400Z"  horiz-adv-x="156" vert-adv-y="862"  />

      
      <glyph glyph-name="uni201C" unicode="&#x201C;" d="M296 303L180 303L180 400L218 497L296 497L250 380L296 380L296 303M136 303L20 303L20 400L58 497L136 497L90 380L136 380L136 303Z"  horiz-adv-x="316" vert-adv-y="862"  />

      
      <glyph glyph-name="uni201D" unicode="&#x201D;" d="M296 400L257 303L180 303L226 419L180 419L180 497L296 497L296 400M136 400L97 303L20 303L66 419L20 419L20 497L136 497L136 400Z"  horiz-adv-x="316" vert-adv-y="862"  />

      
      <glyph glyph-name="uni2022" unicode="&#x2022;" d="M140 241L17 241L17 359L140 359L140 241Z"  horiz-adv-x="157" vert-adv-y="862"  />

      
      <glyph glyph-name="uni2013" unicode="&#x2013;" d="M742 261L10 261L10 339L742 339L742 261Z"  horiz-adv-x="752" vert-adv-y="862"  />

      
      <glyph glyph-name="uni2014" unicode="&#x2014;" d="M1062 261L10 261L10 339L1062 339L1062 261Z"  horiz-adv-x="1069" vert-adv-y="862"  />

      
      <glyph glyph-name="uni02DC" unicode="&#x02DC;" d="M392 352L324 352L324 410Q324 439 289 439Q276 439 265.50 431Q255 423 255 410Q255 371 223.50 346.50Q192 322 152 322Q112 322 82 346Q49 371 49 410L49 469L118 469L118 410Q118 397 128.50 389Q139 381 152 381Q165 381 175.50 389Q186 397 186 410Q186 449 219 474Q249 498 289 498Q330 498 361 474Q392 450 392 410L392 352Z"  horiz-adv-x="430" vert-adv-y="862"  />

      
      <glyph glyph-name="uni2122" unicode="&#x2122;" d="M894 228L847 228L847 391Q847 415 825 415L708 415Q665 415 661 368L660 368L660 229L614 229L614 368L615 368Q615 387 601 401Q587 415 568 415L568 415L450 415L450 229L404 229L404 462L568 462L568 461Q610 461 637 430Q666 461 708 461L825 461Q855 461 874.50 441Q894 421 894 391L894 228M388 392L341 392Q341 415 318 415L224 415L224 228L177 228L177 415L84 415Q60 415 60 392L14 392L14 462L388 462L388 392Z"  horiz-adv-x="916" vert-adv-y="862"  />

      
      <glyph glyph-name="uni0161" unicode="&#x0161;" d="M410 635L294 479L202 479L89 635L190 635L248 554L309 635L410 635M481 199Q481 159 453 130Q425 101 386 101L133 101Q97 101 67 122.50Q37 144 24 179L384 180Q404 180 404 199Q404 219 384 219L114 219Q74 219 46 247.50Q18 276 18 316Q18 357 46 385.50Q74 414 114 414L372 414Q409 414 439 392.50Q469 371 481 336L114 336Q95 336 95 316Q95 297 114 297L386 297Q425 297 453 268Q481 239 481 199Z"  horiz-adv-x="499" vert-adv-y="862"  />

      
      <glyph glyph-name="uni203A" unicode="&#x203A;" d="M176 247L20 135L20 213L101 294L20 378L20 456L176 340L176 247Z"  horiz-adv-x="196" vert-adv-y="862"  />

      
      <glyph glyph-name="uni0153" unicode="&#x0153;" d="M853 181Q841 146 809.50 124.50Q778 103 739 103L519 103Q471 103 435 135Q400 103 352 103L139 103Q89 103 53.50 137Q18 171 18 220L18 298Q18 346 53 380Q88 414 139 414L352 414Q401 414 436 383Q471 414 519 414L752 414Q794 414 823.50 385.50Q853 357 853 317Q853 277 823.50 248.50Q794 220 752 220L479 220Q479 204 490.50 192.50Q502 181 519 181L853 181M772 317Q772 337 752 337L519 337Q502 337 490.50 325.50Q479 314 479 298L752 298Q772 298 772 317M392 220L392 298Q392 314 380.50 325.50Q369 337 352 337L139 337Q122 337 110.50 325.50Q99 314 99 298L99 220Q99 204 110.50 192.50Q122 181 139 181L352 181Q369 181 380.50 192.50Q392 204 392 220Z"  horiz-adv-x="873" vert-adv-y="862"  />

      
      <glyph glyph-name="uni0178" unicode="&#x0178;" d="M412 585L335 585L335 663L412 663L412 585M272 585L195 585L195 663L272 663L272 585M587 495L344 265L344 105L266 105L266 261L20 495L133 495L303 333L474 495L587 495Z"  horiz-adv-x="607" vert-adv-y="862"  />

      
      <glyph glyph-name="unia1" unicode="&#xa1;" d="M98 417L20 417L20 495L98 495L98 417M98 105L20 105L20 339L98 339L98 105Z"  horiz-adv-x="118" vert-adv-y="862"  />

      
      <glyph glyph-name="unia2" unicode="&#xa2;" d="M503 103L306 103L306 85L229 85L229 103L139 103Q89 103 53.50 137Q18 171 18 220L18 298Q18 346 53.50 380Q89 414 139 414L229 414L229 434L306 434L306 414L503 414L503 298L422 298Q422 337 382 337L306 337L306 181L382 181Q400 181 411 192Q422 203 422 220L503 220L503 103M229 181L229 337L139 337Q122 337 110.50 325.50Q99 314 99 298L99 220Q99 204 110.50 192.50Q122 181 139 181L229 181Z"  horiz-adv-x="521" vert-adv-y="862"  />

      
      <glyph glyph-name="unia3" unicode="&#xa3;" d="M729 105L222 105Q179 105 146 133Q113 161 107 203L33 203L56 281L106 281L106 319L67 319L90 397L107 397Q113 439 146 467Q179 495 222 495L729 495L729 378L651 378Q651 417 612 417L222 417Q199 417 188 397L592 397L569 319L183 319L183 281L558 281L535 203L188 203Q199 183 222 183L612 183Q651 183 651 222L729 222L729 105Z"  horiz-adv-x="762" vert-adv-y="862"  />

      
      <glyph glyph-name="unia4" unicode="&#xa4;" d="M338 219L237 219L207 259Q192 255 176 255L166 255Q155 255 145 257L118 219L17 219L74 299Q49 330 49 372L49 378Q49 420 74 451L17 531L118 531L145 493Q155 495 166 495L176 495Q192 495 207 491L237 531L338 531L273 443Q293 415 293 378L293 372Q293 335 273 307L338 219M215 372L215 378Q215 394 203.50 405.50Q192 417 176 417L165 417Q149 417 138 405.50Q127 394 127 378L127 372Q127 333 166 333L176 333Q192 333 203.50 344.50Q215 356 215 372Z"  horiz-adv-x="355" vert-adv-y="862"  />

      
      <glyph glyph-name="unia5" unicode="&#xa5;" d="M587 495L420 337L462 337L462 259L344 259L344 211L462 211L462 133L344 133L344 105L266 105L266 133L150 133L150 211L266 211L266 259L150 259L150 337L186 337L20 495L133 495L299 337L307 337L474 495L587 495Z"  horiz-adv-x="607" vert-adv-y="862"  />

      
      <glyph glyph-name="unia6" unicode="&#xa6;" d="M440 245L310 155L356 5L227 97L97 9L147 157L20 252L180 251L233 398L281 250L440 245M394 231L269 237L232 357L193 238L63 239L167 164L120 41L228 117L325 44L292 160L394 231Z"  horiz-adv-x="460" vert-adv-y="862"  />

      
      <glyph glyph-name="unia7" unicode="&#xa7;" d="M454 262Q454 224 423 192Q451 162 451 126Q451 82 415 50.50Q379 19 335 19L17 19L17 136L95 136Q95 97 134 97L335 97Q346 97 360 106Q374 115 374 126Q374 137 360 146Q346 155 335 155L134 155Q89 155 53 186.50Q17 218 17 262Q17 300 48 332Q20 362 20 398Q20 442 56 473.50Q92 505 136 505L454 505L454 388L376 388Q376 427 337 427L136 427Q125 427 111 418Q97 409 97 398Q97 387 111 378Q125 369 136 369L337 369Q382 369 418 337.50Q454 306 454 262M376 262Q376 273 362 282Q348 291 337 291L134 291Q123 291 109 282Q95 273 95 262Q95 251 109 242Q123 233 134 233L337 233Q348 233 362 242Q376 251 376 262Z"  horiz-adv-x="476" vert-adv-y="862"  />

      
      <glyph glyph-name="unia8" unicode="&#xa8;" d="M237 416L160 416L160 494L237 494L237 416M97 416L20 416L20 494L97 494L97 416Z"  horiz-adv-x="257" vert-adv-y="862"  />

      
      <glyph glyph-name="unia9" unicode="&#xa9;" d="M644 222Q644 174 609.50 139.50Q575 105 527 105L137 105Q88 105 54 139Q20 173 20 222L20 378Q20 427 54 461Q88 495 137 495L527 495Q575 495 609.50 460.50Q644 426 644 378L644 222M566 222L566 378Q566 394 554.50 405.50Q543 417 527 417L136 417Q120 417 109 405.50Q98 394 98 378L98 222Q98 183 137 183L527 183Q543 183 554.50 194.50Q566 206 566 222M487 202L234 202Q210 202 193 219.50Q176 237 176 261L176 339Q176 363 193 380Q210 397 234 397L487 397L487 339L448 339Q448 358 429 358L234 358Q214 358 214 339L214 261Q214 241 234 241L429 241Q448 241 448 261L487 261L487 202Z"  horiz-adv-x="664" vert-adv-y="862"  />

      
      <glyph glyph-name="uniaa" unicode="&#xaa;" d="M443 203L362 203L362 377L139 377Q122 377 110.50 365.50Q99 354 99 338L99 320Q99 304 110.50 292.50Q122 281 139 281L281 281L281 203L139 203Q89 203 53.50 237Q18 271 18 320L18 338Q18 386 53.50 420Q89 454 139 454L443 454L443 203Z"  horiz-adv-x="479" vert-adv-y="862"  />

      
      <glyph glyph-name="uniab" unicode="&#xab;" d="M332 135L176 247L176 340L332 456L332 378L251 294L332 213L332 135M176 135L20 247L20 340L176 456L176 378L95 294L176 213L176 135Z"  horiz-adv-x="352" vert-adv-y="862"  />

      
      <glyph glyph-name="uniac" unicode="&#xac;" d="M332 261L331 261L331 177L253 177L253 261L20 261L20 339L332 339L332 261Z"  horiz-adv-x="352" vert-adv-y="862"  />

      
      <glyph glyph-name="uniae" unicode="&#xae;" d="M644 222Q644 174 609.50 139.50Q575 105 527 105L137 105Q88 105 54 139Q20 173 20 222L20 378Q20 427 54 461Q88 495 137 495L527 495Q575 495 609.50 460.50Q644 426 644 378L644 222M566 222L566 378Q566 394 554.50 405.50Q543 417 527 417L136 417Q120 417 109 405.50Q98 394 98 378L98 222Q98 183 137 183L527 183Q543 183 554.50 194.50Q566 206 566 222M488 202L449 202L449 261Q449 280 430 280L235 280L235 202L196 202L196 397L430 397Q454 397 471 380Q488 363 488 339Q488 316 474 300Q488 283 488 261L488 202M449 339Q449 358 430 358L235 358L235 319L430 319Q449 319 449 339Z"  horiz-adv-x="664" vert-adv-y="862"  />

      
      <glyph glyph-name="unib0" unicode="&#xb0;" d="M294 372Q294 324 259.50 289.50Q225 255 177 255L137 255Q88 255 54 289Q20 323 20 372L20 378Q20 427 54 461Q88 495 137 495L177 495Q225 495 259.50 460.50Q294 426 294 378L294 372M216 372L216 378Q216 394 204.50 405.50Q193 417 177 417L136 417Q120 417 109 405.50Q98 394 98 378L98 372Q98 333 137 333L177 333Q193 333 204.50 344.50Q216 356 216 372Z"  horiz-adv-x="310" vert-adv-y="862"  />

      
      <glyph glyph-name="unib1" unicode="&#xb1;" d="M332 101L20 101L20 179L137 179L137 261L20 261L20 339L137 339L137 453L215 453L215 339L332 339L332 261L215 261L215 179L332 179L332 101Z"  horiz-adv-x="352" vert-adv-y="862"  />

      
      <glyph glyph-name="unib2" unicode="&#xb2;" d="M454 185L20 185L20 262Q20 310 54 344.50Q88 379 136 379L337 379Q344 379 365 400Q348 417 337 417L136 417Q97 417 97 388L20 388L20 495L337 495Q382 495 418 464Q454 433 454 388Q454 371 443 358Q438 352 420 335Q384 301 337 301L136 301Q107 301 98 263Q97 259 97 262L97 263L337 263Q362 263 394 272Q436 284 436 302L454 302L454 185Z"  horiz-adv-x="472" vert-adv-y="862"  />

      
      <glyph glyph-name="unib3" unicode="&#xb3;" d="M437 282Q437 260 429 247Q425 241 403 219Q368 185 320 185L24 185L24 282L101 282Q101 265 110 263L320 263Q327 263 348 284Q331 301 320 301L140 301L140 379L320 379Q327 379 348 400Q331 417 320 417L140 417Q101 417 101 378L24 378L24 495L320 495Q369 495 403 461Q426 438 429 433Q437 420 437 398Q437 378 430 366Q427 361 408 340Q427 319 430 314Q437 302 437 282Z"  horiz-adv-x="461" vert-adv-y="862"  />

      
      <glyph glyph-name="unib4" unicode="&#xb4;" d="M215 495L98 339L20 339L137 495L215 495Z"  horiz-adv-x="235" vert-adv-y="862"  />

      
      <glyph glyph-name="unib5" unicode="&#xb5;" d="M464 311L300 311L300 205L222 205L222 311L20 311L20 495L98 495L98 389L222 389L222 456L300 456L300 389L348 389Q387 389 386 428L464 428L464 311Z"  horiz-adv-x="498" vert-adv-y="862"  />

      
      <glyph glyph-name="unib6" unicode="&#xb6;" d="M601 105L524 105L524 416L467 416L467 105L389 105L389 261L140 261Q91 261 57 295Q23 329 23 378Q23 427 57 461Q91 495 140 495L467 495L467 494L601 494L601 105Z"  horiz-adv-x="624" vert-adv-y="862"  />

      
      <glyph glyph-name="unib7" unicode="&#xb7;" d="M102 261L20 261L20 339L102 339L102 261Z"  horiz-adv-x="125" vert-adv-y="862"  />

      
      <glyph glyph-name="uni2219" unicode="&#x2219;" d="M102 261L20 261L20 339L102 339L102 261Z"  horiz-adv-x="125" vert-adv-y="862"  />

      
      <glyph glyph-name="unib8" unicode="&#xb8;" d="M143 52Q143 3 109-31Q75-65 26-65L20-65L20 11L26 13Q49 21 54 25Q65 34 65 52L65 58Q65 74 54 85.50Q43 97 27 97L20 97L20 175L26 175Q75 175 109 141Q143 107 143 58L143 52Z"  horiz-adv-x="174" vert-adv-y="862"  />

      
      <glyph glyph-name="unib9" unicode="&#xb9;" d="M175 225L20 225L20 303L58 303L58 495L136 495L136 303L175 303L175 225Z"  horiz-adv-x="195" vert-adv-y="862"  />

      
      <glyph glyph-name="uniba" unicode="&#xba;" d="M264 372Q264 324 229.50 289.50Q195 255 147 255L137 255Q88 255 54 289Q20 323 20 372L20 378Q20 427 54 461Q88 495 137 495L147 495Q195 495 229.50 460.50Q264 426 264 378L264 372M186 372L186 378Q186 394 174.50 405.50Q163 417 147 417L136 417Q120 417 109 405.50Q98 394 98 378L98 372Q98 333 137 333L147 333Q163 333 174.50 344.50Q186 356 186 372Z"  horiz-adv-x="284" vert-adv-y="862"  />

      
      <glyph glyph-name="unibb" unicode="&#xbb;" d="M332 247L176 135L176 213L258 294L176 378L176 456L332 340L332 247M176 247L20 135L20 213L101 294L20 378L20 456L176 340L176 247Z"  horiz-adv-x="352" vert-adv-y="862"  />

      
      <glyph glyph-name="unibc" unicode="&#xbc;" d="M931 211L767 211L767 105L689 105L689 211L487 211L487 395L565 395L565 289L689 289L689 356L767 356L767 289L815 289Q854 289 853 328L931 328L931 211M533 495L244 105L144 105L433 495L533 495M169 205L14 205L14 283L52 283L52 495L130 495L130 283L169 283L169 205Z"  horiz-adv-x="945" vert-adv-y="862"  />

      
      <glyph glyph-name="unibd" unicode="&#xbd;" d="M977 105L543 105L543 182Q543 230 577 264.50Q611 299 659 299L860 299Q867 299 888 320Q871 337 860 337L659 337Q620 337 620 308L543 308L543 415L860 415Q905 415 941 384Q977 353 977 308Q977 287 969 278Q936 248 920 238Q893 221 860 221L659 221Q643 221 631.50 210Q620 199 620 182L620 183L860 183Q885 183 917 192Q959 204 959 222L977 222L977 105M544 495L255 105L155 105L444 495L544 495M180 205L25 205L25 283L63 283L63 495L141 495L141 283L180 283L180 205Z"  horiz-adv-x="1002" vert-adv-y="862"  />

      
      <glyph glyph-name="unibe" unicode="&#xbe;" d="M1181 211L1017 211L1017 105L939 105L939 211L737 211L737 395L815 395L815 289L939 289L939 356L1017 356L1017 289L1065 289Q1104 289 1103 328L1181 328L1181 211M783 495L494 105L394 105L683 495L783 495M451 282Q451 260 443 247Q439 241 417 219Q382 185 334 185L37 185L37 282L114 282Q114 265 124 263L334 263Q341 263 362 284Q345 301 334 301L153 301L153 379L334 379Q341 379 362 400Q345 417 334 417L153 417Q114 417 114 378L37 378L37 495L334 495Q382 495 417 461Q439 439 443 433Q451 420 451 398Q451 378 444 366Q441 361 422 340Q441 319 444 314Q451 302 451 282Z"  horiz-adv-x="1218" vert-adv-y="862"  />

      
      <glyph glyph-name="unibf" unicode="&#xbf;" d="M409 417L331 417L331 495L409 495L409 417M604 105L137 105Q88 105 54 139Q20 173 20 222Q20 271 54 305Q88 339 137 339L409 339L409 261L137 261Q98 261 98 222Q98 183 137 183L488 183Q527 183 526 222L604 222L604 105Z"  horiz-adv-x="624" vert-adv-y="862"  />

      
      <glyph glyph-name="unic0" unicode="&#xc0;" d="M429 549L351 549L234 705L312 705L429 549M643 105L566 105L566 261L98 261L98 105L20 105L20 378Q20 426 54 460.50Q88 495 136 495L527 495Q575 495 609 460.50Q643 426 643 378L643 105M566 339L566 378Q566 394 554.50 405.50Q543 417 527 417L136 417Q120 417 109 405.50Q98 394 98 378L98 339L566 339Z"  horiz-adv-x="663" vert-adv-y="862"  />

      
      <glyph glyph-name="unic1" unicode="&#xc1;" d="M429 705L312 549L234 549L351 705L429 705M643 105L566 105L566 261L98 261L98 105L20 105L20 378Q20 426 54 460.50Q88 495 136 495L527 495Q575 495 609 460.50Q643 426 643 378L643 105M566 339L566 378Q566 394 554.50 405.50Q543 417 527 417L136 417Q120 417 109 405.50Q98 394 98 378L98 339L566 339Z"  horiz-adv-x="663" vert-adv-y="862"  />

      
      <glyph glyph-name="unic2" unicode="&#xc2;" d="M492 549L391 549L330 630L272 549L171 549L284 705L376 705L492 549M643 105L566 105L566 261L98 261L98 105L20 105L20 378Q20 426 54 460.50Q88 495 136 495L527 495Q575 495 609 460.50Q643 426 643 378L643 105M566 339L566 378Q566 394 554.50 405.50Q543 417 527 417L136 417Q120 417 109 405.50Q98 394 98 378L98 339L566 339Z"  horiz-adv-x="663" vert-adv-y="862"  />

      
      <glyph glyph-name="unic3" unicode="&#xc3;" d="M503 566L434 566L434 624Q434 637 423.50 645.50Q413 654 400 654Q387 654 376.50 645.50Q366 637 366 624Q366 585 334.50 561Q303 537 263 537Q223 537 193 560Q160 585 160 624L160 683L229 683L229 624Q229 612 239.50 603.50Q250 595 263 595Q276 595 286.50 603.50Q297 612 297 624Q297 664 328 688Q359 712 400 712Q441 712 472 688Q503 664 503 624L503 566M643 105L566 105L566 261L98 261L98 105L20 105L20 378Q20 426 54 460.50Q88 495 136 495L527 495Q575 495 609 460.50Q643 426 643 378L643 105M566 339L566 378Q566 394 554.50 405.50Q543 417 527 417L136 417Q120 417 109 405.50Q98 394 98 378L98 339L566 339Z"  horiz-adv-x="663" vert-adv-y="862"  />

      
      <glyph glyph-name="unic4" unicode="&#xc4;" d="M440 585L363 585L363 663L440 663L440 585M300 585L223 585L223 663L300 663L300 585M643 105L566 105L566 261L98 261L98 105L20 105L20 378Q20 426 54 460.50Q88 495 136 495L527 495Q575 495 609 460.50Q643 426 643 378L643 105M566 339L566 378Q566 394 554.50 405.50Q543 417 527 417L136 417Q120 417 109 405.50Q98 394 98 378L98 339L566 339Z"  horiz-adv-x="663" vert-adv-y="862"  />

      
      <glyph glyph-name="unic5" unicode="&#xc5;" d="M454 612Q454 564 419.50 529.50Q385 495 337 495L327 495Q277 495 243.50 528.50Q210 562 210 612L210 618Q210 668 243.50 701.50Q277 735 327 735L337 735Q385 735 419.50 700.50Q454 666 454 618L454 612M643 105L566 105L566 261L98 261L98 105L20 105L20 378Q20 426 54 460.50Q88 495 136 495L527 495Q575 495 609 460.50Q643 426 643 378L643 105M376 612L376 618Q376 634 364.50 645.50Q353 657 337 657L326 657Q288 657 288 618L288 612Q288 573 327 573L337 573Q353 573 364.50 584.50Q376 596 376 612M566 339L566 378Q566 394 554.50 405.50Q543 417 527 417L136 417Q120 417 109 405.50Q98 394 98 378L98 339L566 339Z"  horiz-adv-x="663" vert-adv-y="862"  />

      
      <glyph glyph-name="unic6" unicode="&#xc6;" d="M1034 105L506 105L506 261L98 261L98 105L20 105L20 378Q20 426 54 460.50Q88 495 136 495L467 495Q490 495 510 487L510 495L1034 495L1034 378L956 378Q956 417 918 417L588 417L588 339L918 339L918 261L588 261L588 183L918 183Q957 183 956 222L1034 222L1034 105M506 339L506 378Q506 394 494.50 405.50Q483 417 467 417L136 417Q120 417 109 405.50Q98 394 98 378L98 339L506 339Z"  horiz-adv-x="1066" vert-adv-y="862"  />

      
      <glyph glyph-name="unic7" unicode="&#xc7;" d="M643 105L397 105Q403 88 403 68L403 62Q403 13 369-21Q335-55 286-55L280-55L280 21L286 23Q309 31 314 35Q325 44 325 62L325 68Q325 96 299 105L136 105Q88 105 54 139.50Q20 174 20 222L20 378Q20 426 54 460.50Q88 495 136 495L643 495L643 378L565 378Q565 417 526 417L136 417Q120 417 108.50 405.50Q97 394 97 378L97 222Q97 206 108.50 194.50Q120 183 136 183L280 183L280 185L286 185Q298 185 309 183L526 183Q565 183 565 222L643 222L643 105Z"  horiz-adv-x="663" vert-adv-y="862"  />

      
      <glyph glyph-name="unic8" unicode="&#xc8;" d="M409 549L332 549L215 705L293 705L409 549M604 105L20 105L20 495L604 495L604 378L526 378Q526 417 488 417L98 417L98 339L488 339L488 261L98 261L98 183L488 183Q527 183 526 222L604 222L604 105Z"  horiz-adv-x="624" vert-adv-y="862"  />

      
      <glyph glyph-name="unic9" unicode="&#xc9;" d="M409 705L293 549L215 549L332 705L409 705M604 105L20 105L20 495L604 495L604 378L526 378Q526 417 488 417L98 417L98 339L488 339L488 261L98 261L98 183L488 183Q527 183 526 222L604 222L604 105Z"  horiz-adv-x="624" vert-adv-y="862"  />

      
      <glyph glyph-name="unica" unicode="&#xca;" d="M473 549L372 549L311 630L253 549L152 549L265 705L357 705L473 549M604 105L20 105L20 495L604 495L604 378L526 378Q526 417 488 417L98 417L98 339L488 339L488 261L98 261L98 183L488 183Q527 183 526 222L604 222L604 105Z"  horiz-adv-x="624" vert-adv-y="862"  />

      
      <glyph glyph-name="unicb" unicode="&#xcb;" d="M421 585L344 585L344 663L421 663L421 585M281 585L204 585L204 663L281 663L281 585M604 105L20 105L20 495L604 495L604 378L526 378Q526 417 488 417L98 417L98 339L488 339L488 261L98 261L98 183L488 183Q527 183 526 222L604 222L604 105Z"  horiz-adv-x="624" vert-adv-y="862"  />

      
      <glyph glyph-name="unicc" unicode="&#xcc;" d="M156 549L78 549L-39 705L39 705L156 549M97 105L20 105L20 494L97 494L97 105Z"  horiz-adv-x="117" vert-adv-y="862"  />

      
      <glyph glyph-name="unicd" unicode="&#xcd;" d="M156 705L39 549L-39 549L78 705L156 705M97 105L20 105L20 494L97 494L97 105Z"  horiz-adv-x="117" vert-adv-y="862"  />

      
      <glyph glyph-name="unice" unicode="&#xce;" d="M219 549L118 549L57 630L-1 549L-102 549L11 705L103 705L219 549M97 105L20 105L20 494L97 494L97 105Z"  horiz-adv-x="117" vert-adv-y="862"  />

      
      <glyph glyph-name="unicf" unicode="&#xcf;" d="M167 585L90 585L90 663L167 663L167 585M27 585L-50 585L-50 663L27 663L27 585M97 105L20 105L20 494L97 494L97 105Z"  horiz-adv-x="117" vert-adv-y="862"  />

      
      <glyph glyph-name="unid0" unicode="&#xd0;" d="M603 222Q603 173 569 139Q535 105 486 105L20 105L20 494L486 494Q535 494 569 460Q603 426 603 377L603 222M525 222L525 377Q525 393 513.50 404.50Q502 416 486 416L97 416L97 339L332 339L332 261L97 261L97 183L486 183Q502 183 513.50 194.50Q525 206 525 222Z"  horiz-adv-x="623" vert-adv-y="862"  />

      
      <glyph glyph-name="unid1" unicode="&#xd1;" d="M484 566L415 566L415 624Q415 637 404.50 645.50Q394 654 381 654Q347 654 347 624Q347 585 315.50 561Q284 537 244 537Q203 537 172 560.50Q141 584 141 624L141 683L210 683L210 624Q210 612 220.50 603.50Q231 595 244 595Q256 595 267 603.50Q278 612 278 624Q278 664 309 688Q340 712 381 712Q422 712 453 688Q484 664 484 624L484 566M604 105L526 105L526 378Q526 394 514.50 405.50Q503 417 487 417L97 417L97 105L20 105L20 495L487 495Q536 495 570 461Q604 427 604 378L604 105Z"  horiz-adv-x="624" vert-adv-y="862"  />

      
      <glyph glyph-name="unid2" unicode="&#xd2;" d="M429 549L351 549L234 705L312 705L429 549M644 222Q644 174 609.50 139.50Q575 105 527 105L137 105Q88 105 54 139Q20 173 20 222L20 378Q20 427 54 461Q88 495 137 495L527 495Q575 495 609.50 460.50Q644 426 644 378L644 222M566 222L566 378Q566 394 554.50 405.50Q543 417 527 417L136 417Q120 417 109 405.50Q98 394 98 378L98 222Q98 183 137 183L527 183Q543 183 554.50 194.50Q566 206 566 222Z"  horiz-adv-x="664" vert-adv-y="862"  />

      
      <glyph glyph-name="unid3" unicode="&#xd3;" d="M429 705L312 549L234 549L351 705L429 705M644 222Q644 174 609.50 139.50Q575 105 527 105L137 105Q88 105 54 139Q20 173 20 222L20 378Q20 427 54 461Q88 495 137 495L527 495Q575 495 609.50 460.50Q644 426 644 378L644 222M566 222L566 378Q566 394 554.50 405.50Q543 417 527 417L136 417Q120 417 109 405.50Q98 394 98 378L98 222Q98 183 137 183L527 183Q543 183 554.50 194.50Q566 206 566 222Z"  horiz-adv-x="664" vert-adv-y="862"  />

      
      <glyph glyph-name="unid4" unicode="&#xd4;" d="M493 549L392 549L330 630L273 549L172 549L284 705L377 705L493 549M644 222Q644 174 609.50 139.50Q575 105 527 105L137 105Q88 105 54 139Q20 173 20 222L20 378Q20 427 54 461Q88 495 137 495L527 495Q575 495 609.50 460.50Q644 426 644 378L644 222M566 222L566 378Q566 394 554.50 405.50Q543 417 527 417L136 417Q120 417 109 405.50Q98 394 98 378L98 222Q98 183 137 183L527 183Q543 183 554.50 194.50Q566 206 566 222Z"  horiz-adv-x="664" vert-adv-y="862"  />

      
      <glyph glyph-name="unid5" unicode="&#xd5;" d="M504 566L434 566L434 624Q434 637 424 645.50Q414 654 401 654Q367 654 367 624Q367 585 335.50 561Q304 537 264 537Q223 537 192 560.50Q161 584 161 624L161 683L230 683L230 624Q230 612 240.50 603.50Q251 595 264 595Q276 595 287 603.50Q298 612 298 624Q298 664 329 688Q360 712 401 712Q442 712 473 688Q504 664 504 624L504 566M644 222Q644 174 609.50 139.50Q575 105 527 105L137 105Q88 105 54 139Q20 173 20 222L20 378Q20 427 54 461Q88 495 137 495L527 495Q575 495 609.50 460.50Q644 426 644 378L644 222M566 222L566 378Q566 394 554.50 405.50Q543 417 527 417L136 417Q120 417 109 405.50Q98 394 98 378L98 222Q98 183 137 183L527 183Q543 183 554.50 194.50Q566 206 566 222Z"  horiz-adv-x="664" vert-adv-y="862"  />

      
      <glyph glyph-name="unid6" unicode="&#xd6;" d="M441 585L364 585L364 663L441 663L441 585M301 585L224 585L224 663L301 663L301 585M644 222Q644 174 609.50 139.50Q575 105 527 105L137 105Q88 105 54 139Q20 173 20 222L20 378Q20 427 54 461Q88 495 137 495L527 495Q575 495 609.50 460.50Q644 426 644 378L644 222M566 222L566 378Q566 394 554.50 405.50Q543 417 527 417L136 417Q120 417 109 405.50Q98 394 98 378L98 222Q98 183 137 183L527 183Q543 183 554.50 194.50Q566 206 566 222Z"  horiz-adv-x="664" vert-adv-y="862"  />

      
      <glyph glyph-name="unid7" unicode="&#xd7;" d="M341 144L240 144L180 225L121 144L20 144L132 300L20 456L121 456L180 375L240 456L341 456L225 300L341 144Z"  horiz-adv-x="361" vert-adv-y="862"  />

      
      <glyph glyph-name="unid8" unicode="&#xd8;" d="M644 222Q644 174 609.50 139.50Q575 105 527 105L137 105Q88 105 54 139Q20 173 20 222L20 378Q20 427 54 461Q88 495 137 495L527 495Q575 495 609.50 460.50Q644 426 644 378L644 222M566 222L566 378Q566 394 554.50 405.50Q543 417 527 417L469 417L295 183L527 183Q543 183 554.50 194.50Q566 206 566 222M369 417L136 417Q120 417 109 405.50Q98 394 98 378L98 222Q98 183 137 183L195 183L369 417Z"  horiz-adv-x="664" vert-adv-y="862"  />

      
      <glyph glyph-name="unid9" unicode="&#xd9;" d="M429 549L351 549L234 705L312 705L429 549M643 222Q643 174 608.50 139.50Q574 105 526 105L136 105Q88 105 54 139.50Q20 174 20 222L20 495L97 495L97 222Q97 206 108.50 194.50Q120 183 136 183L526 183Q542 183 553.50 194.50Q565 206 565 222L565 495L643 495L643 222Z"  horiz-adv-x="663" vert-adv-y="862"  />

      
      <glyph glyph-name="unida" unicode="&#xda;" d="M429 705L312 549L234 549L351 705L429 705M643 222Q643 174 608.50 139.50Q574 105 526 105L136 105Q88 105 54 139.50Q20 174 20 222L20 495L97 495L97 222Q97 206 108.50 194.50Q120 183 136 183L526 183Q542 183 553.50 194.50Q565 206 565 222L565 495L643 495L643 222Z"  horiz-adv-x="663" vert-adv-y="862"  />

      
      <glyph glyph-name="unidb" unicode="&#xdb;" d="M492 549L391 549L330 630L272 549L171 549L284 705L376 705L492 549M643 222Q643 174 608.50 139.50Q574 105 526 105L136 105Q88 105 54 139.50Q20 174 20 222L20 495L97 495L97 222Q97 206 108.50 194.50Q120 183 136 183L526 183Q542 183 553.50 194.50Q565 206 565 222L565 495L643 495L643 222Z"  horiz-adv-x="663" vert-adv-y="862"  />

      
      <glyph glyph-name="unidc" unicode="&#xdc;" d="M440 585L363 585L363 663L440 663L440 585M300 585L223 585L223 663L300 663L300 585M643 222Q643 174 608.50 139.50Q574 105 526 105L136 105Q88 105 54 139.50Q20 174 20 222L20 495L97 495L97 222Q97 206 108.50 194.50Q120 183 136 183L526 183Q542 183 553.50 194.50Q565 206 565 222L565 495L643 495L643 222Z"  horiz-adv-x="663" vert-adv-y="862"  />

      
      <glyph glyph-name="unidd" unicode="&#xdd;" d="M401 705L284 549L206 549L323 705L401 705M587 495L344 265L344 105L266 105L266 261L20 495L133 495L303 333L474 495L587 495Z"  horiz-adv-x="607" vert-adv-y="862"  />

      
      <glyph glyph-name="unide" unicode="&#xde;" d="M604 298Q604 249 570 215Q536 181 487 181L98 181L98 105L20 105L20 494L97 494L97 415L487 415Q536 415 570 381Q604 347 604 298M526 298Q526 337 487 337L98 337L98 259L487 259Q526 259 526 298Z"  horiz-adv-x="624" vert-adv-y="862"  />

      
      <glyph glyph-name="unidf" unicode="&#xdf;" d="M574 202Q574 133 540 99Q506 65 457 65L160 65L160 143L457 143Q475 143 486 163Q496 180 496 202Q496 238 485 249.50Q474 261 458 261L230 261L229 339L458 339Q474 339 485.50 350.50Q497 362 497 378Q497 395 485.50 406Q474 417 457 417L98 417L98 105L20 105L20 495L457 495Q506 495 540 461Q574 427 574 378Q574 333 545 300Q574 267 574 202Z"  horiz-adv-x="612" vert-adv-y="862"  />

      
      <glyph glyph-name="unie0" unicode="&#xe0;" d="M358 479L280 479L163 635L241 635L358 479M503 103L422 103L422 337L139 337Q122 337 110.50 325.50Q99 314 99 298L99 220Q99 204 110.50 192.50Q122 181 139 181L341 181L341 103L139 103Q89 103 53.50 137Q18 171 18 220L18 298Q18 346 53.50 380Q89 414 139 414L503 414L503 103Z"  horiz-adv-x="521" vert-adv-y="862"  />

      
      <glyph glyph-name="unie1" unicode="&#xe1;" d="M358 635L241 479L163 479L280 635L358 635M503 103L422 103L422 337L139 337Q122 337 110.50 325.50Q99 314 99 298L99 220Q99 204 110.50 192.50Q122 181 139 181L341 181L341 103L139 103Q89 103 53.50 137Q18 171 18 220L18 298Q18 346 53.50 380Q89 414 139 414L503 414L503 103Z"  horiz-adv-x="521" vert-adv-y="862"  />

      
      <glyph glyph-name="unie2" unicode="&#xe2;" d="M421 479L320 479L259 560L201 479L100 479L213 635L305 635L421 479M503 103L422 103L422 337L139 337Q122 337 110.50 325.50Q99 314 99 298L99 220Q99 204 110.50 192.50Q122 181 139 181L341 181L341 103L139 103Q89 103 53.50 137Q18 171 18 220L18 298Q18 346 53.50 380Q89 414 139 414L503 414L503 103Z"  horiz-adv-x="521" vert-adv-y="862"  />

      
      <glyph glyph-name="unie3" unicode="&#xe3;" d="M432 496L363 496L363 554Q363 567 352.50 575.50Q342 584 329 584Q316 584 305.50 575.50Q295 567 295 554Q295 515 263.50 491Q232 467 192 467Q152 467 122 490Q89 515 89 554L89 613L158 613L158 554Q158 542 168.50 533.50Q179 525 192 525Q205 525 215.50 533.50Q226 542 226 554Q226 594 257 618Q288 642 329 642Q370 642 401 618Q432 594 432 554L432 496M503 103L422 103L422 337L139 337Q122 337 110.50 325.50Q99 314 99 298L99 220Q99 204 110.50 192.50Q122 181 139 181L341 181L341 103L139 103Q89 103 53.50 137Q18 171 18 220L18 298Q18 346 53.50 380Q89 414 139 414L503 414L503 103Z"  horiz-adv-x="521" vert-adv-y="862"  />

      
      <glyph glyph-name="unie4" unicode="&#xe4;" d="M369 515L292 515L292 593L369 593L369 515M229 515L152 515L152 593L229 593L229 515M503 103L422 103L422 337L139 337Q122 337 110.50 325.50Q99 314 99 298L99 220Q99 204 110.50 192.50Q122 181 139 181L341 181L341 103L139 103Q89 103 53.50 137Q18 171 18 220L18 298Q18 346 53.50 380Q89 414 139 414L503 414L503 103Z"  horiz-adv-x="521" vert-adv-y="862"  />

      
      <glyph glyph-name="unie5" unicode="&#xe5;" d="M382 542Q382 494 348 459.50Q314 425 266 425L255 425Q205 425 172 458.50Q139 492 139 542L139 548Q139 598 172 631.50Q205 665 255 665L266 665Q314 665 348 630.50Q382 596 382 548L382 542M503 103L422 103L422 337L139 337Q122 337 110.50 325.50Q99 314 99 298L99 220Q99 204 110.50 192.50Q122 181 139 181L341 181L341 103L139 103Q89 103 53.50 137Q18 171 18 220L18 298Q18 346 53.50 380Q89 414 139 414L503 414L503 103M305 542L305 548Q305 564 293.50 575.50Q282 587 266 587L255 587Q216 587 216 548L216 542Q216 503 255 503L266 503Q282 503 293.50 514.50Q305 526 305 542Z"  horiz-adv-x="521" vert-adv-y="862"  />

      
      <glyph glyph-name="unie6" unicode="&#xe6;" d="M833 181Q821 146 789.50 124.50Q758 103 719 103L509 103Q485 103 463 112L463 103L382 103L382 337L139 337Q122 337 110.50 325.50Q99 314 99 298L99 220Q99 204 110.50 192.50Q122 181 139 181L301 181L301 103L139 103Q89 103 53.50 137Q18 171 18 220L18 298Q18 346 53.50 380Q89 414 139 414L463 414L463 406Q485 414 509 414L732 414Q774 414 803.50 385.50Q833 357 833 317Q833 277 803.50 248.50Q774 220 732 220L469 220Q469 204 480.50 192.50Q492 181 509 181L833 181M752 317Q752 337 732 337L509 337Q492 337 480.50 325.50Q469 314 469 298L732 298Q752 298 752 317Z"  horiz-adv-x="851" vert-adv-y="862"  />

      
      <glyph glyph-name="unie7" unicode="&#xe7;" d="M503 103L362 103Q367 86 367 67L367 61Q367 12 333-22Q299-56 250-56L244-56L244 20L250 22Q273 30 278 34Q289 43 289 61L289 67Q289 93 266 103L139 103Q89 103 53.50 137Q18 171 18 220L18 298Q18 346 53.50 380Q89 414 139 414L503 414L503 298L422 298Q422 337 382 337L139 337Q122 337 110.50 325.50Q99 314 99 298L99 220Q99 204 110.50 192.50Q122 181 139 181L382 181Q400 181 411 192Q422 203 422 220L503 220L503 103Z"  horiz-adv-x="521" vert-adv-y="862"  />

      
      <glyph glyph-name="unie8" unicode="&#xe8;" d="M358 479L280 479L163 635L241 635L358 479M503 181Q491 146 459.50 124.50Q428 103 389 103L139 103Q89 103 53.50 137Q18 171 18 220L18 298Q18 346 53.50 380Q89 414 139 414L402 414Q444 414 473.50 385.50Q503 357 503 317Q503 277 473.50 248.50Q444 220 402 220L99 220Q99 204 110.50 192.50Q122 181 139 181L503 181M422 317Q422 337 402 337L139 337Q122 337 110.50 325.50Q99 314 99 298L402 298Q422 298 422 317Z"  horiz-adv-x="521" vert-adv-y="862"  />

      
      <glyph glyph-name="unie9" unicode="&#xe9;" d="M358 635L241 479L163 479L280 635L358 635M503 181Q491 146 459.50 124.50Q428 103 389 103L139 103Q89 103 53.50 137Q18 171 18 220L18 298Q18 346 53.50 380Q89 414 139 414L402 414Q444 414 473.50 385.50Q503 357 503 317Q503 277 473.50 248.50Q444 220 402 220L99 220Q99 204 110.50 192.50Q122 181 139 181L503 181M422 317Q422 337 402 337L139 337Q122 337 110.50 325.50Q99 314 99 298L402 298Q422 298 422 317Z"  horiz-adv-x="521" vert-adv-y="862"  />

      
      <glyph glyph-name="uniea" unicode="&#xea;" d="M421 479L320 479L259 560L201 479L100 479L213 635L305 635L421 479M503 181Q491 146 459.50 124.50Q428 103 389 103L139 103Q89 103 53.50 137Q18 171 18 220L18 298Q18 346 53.50 380Q89 414 139 414L402 414Q444 414 473.50 385.50Q503 357 503 317Q503 277 473.50 248.50Q444 220 402 220L99 220Q99 204 110.50 192.50Q122 181 139 181L503 181M422 317Q422 337 402 337L139 337Q122 337 110.50 325.50Q99 314 99 298L402 298Q422 298 422 317Z"  horiz-adv-x="521" vert-adv-y="862"  />

      
      <glyph glyph-name="unieb" unicode="&#xeb;" d="M369 515L292 515L292 593L369 593L369 515M229 515L152 515L152 593L229 593L229 515M503 181Q491 146 459.50 124.50Q428 103 389 103L139 103Q89 103 53.50 137Q18 171 18 220L18 298Q18 346 53.50 380Q89 414 139 414L402 414Q444 414 473.50 385.50Q503 357 503 317Q503 277 473.50 248.50Q444 220 402 220L99 220Q99 204 110.50 192.50Q122 181 139 181L503 181M422 317Q422 337 402 337L139 337Q122 337 110.50 325.50Q99 314 99 298L402 298Q422 298 422 317Z"  horiz-adv-x="521" vert-adv-y="862"  />

      
      <glyph glyph-name="uniec" unicode="&#xec;" d="M156 479L78 479L-39 635L39 635L156 479M99 103L18 103L18 414L99 414L99 103Z"  horiz-adv-x="116" vert-adv-y="862"  />

      
      <glyph glyph-name="unied" unicode="&#xed;" d="M156 635L39 479L-39 479L78 635L156 635M99 103L18 103L18 414L99 414L99 103Z"  horiz-adv-x="116" vert-adv-y="862"  />

      
      <glyph glyph-name="uniee" unicode="&#xee;" d="M219 479L118 479L57 560L-1 479L-102 479L11 635L103 635L219 479M99 103L18 103L18 414L99 414L99 103Z"  horiz-adv-x="116" vert-adv-y="862"  />

      
      <glyph glyph-name="unief" unicode="&#xef;" d="M167 515L90 515L90 593L167 593L167 515M27 515L-50 515L-50 593L27 593L27 515M99 103L18 103L18 414L99 414L99 103Z"  horiz-adv-x="116" vert-adv-y="862"  />

      
      <glyph glyph-name="unif0" unicode="&#xf0;" d="M604 222Q604 174 570 139.50Q536 105 488 105L137 105Q88 105 54 139Q20 173 20 222Q20 271 54 305Q88 339 137 339L488 339Q504 339 515 350.50Q526 362 526 378Q526 394 515 405.50Q504 417 488 417L175 417Q158 417 147 406Q136 395 137 378L59 378L59 495L488 495Q536 495 570 460.50Q604 426 604 378Q604 333 575 300Q604 267 604 222M527 222Q527 238 515.50 249.50Q504 261 488 261L137 261Q98 261 98 222Q98 183 137 183L488 183Q504 183 515.50 194.50Q527 206 527 222Z"  horiz-adv-x="624" vert-adv-y="862"  />

      
      <glyph glyph-name="unif1" unicode="&#xf1;" d="M392 496L323 496L323 554Q323 567 312.50 575.50Q302 584 289 584Q275 584 265 575.50Q255 567 255 554Q255 515 223.50 491Q192 467 152 467Q111 467 80 491Q49 515 49 554L49 613L118 613L118 554Q118 542 128.50 533.50Q139 525 152 525Q164 525 175 533.50Q186 542 186 554Q186 594 218 619Q247 642 289 642Q330 642 359 619Q392 594 392 554L392 496M422 260L421 260L421 104L340 104L340 260L341 260Q341 292 317.50 315Q294 338 260 338L260 339L99 339L99 104L18 104L18 417L260 417L260 416Q327 416 374.50 370Q422 324 422 260Z"  horiz-adv-x="440" vert-adv-y="862"  />

      
      <glyph glyph-name="unif2" unicode="&#xf2;" d="M358 479L280 479L163 635L241 635L358 479M503 220Q503 171 467.50 137Q432 103 382 103L139 103Q89 103 53.50 137Q18 171 18 220L18 298Q18 346 53 380Q88 414 139 414L382 414Q433 414 468 380Q503 346 503 298L503 220M422 220L422 298Q422 314 410.50 325.50Q399 337 382 337L139 337Q122 337 110.50 325.50Q99 314 99 298L99 220Q99 204 110.50 192.50Q122 181 139 181L382 181Q399 181 410.50 192.50Q422 204 422 220Z"  horiz-adv-x="521" vert-adv-y="862"  />

      
      <glyph glyph-name="unif3" unicode="&#xf3;" d="M358 635L241 479L163 479L280 635L358 635M503 220Q503 171 467.50 137Q432 103 382 103L139 103Q89 103 53.50 137Q18 171 18 220L18 298Q18 346 53 380Q88 414 139 414L382 414Q433 414 468 380Q503 346 503 298L503 220M422 220L422 298Q422 314 410.50 325.50Q399 337 382 337L139 337Q122 337 110.50 325.50Q99 314 99 298L99 220Q99 204 110.50 192.50Q122 181 139 181L382 181Q399 181 410.50 192.50Q422 204 422 220Z"  horiz-adv-x="521" vert-adv-y="862"  />

      
      <glyph glyph-name="unif4" unicode="&#xf4;" d="M421 479L320 479L259 560L201 479L100 479L213 635L305 635L421 479M503 220Q503 171 467.50 137Q432 103 382 103L139 103Q89 103 53.50 137Q18 171 18 220L18 298Q18 346 53 380Q88 414 139 414L382 414Q433 414 468 380Q503 346 503 298L503 220M422 220L422 298Q422 314 410.50 325.50Q399 337 382 337L139 337Q122 337 110.50 325.50Q99 314 99 298L99 220Q99 204 110.50 192.50Q122 181 139 181L382 181Q399 181 410.50 192.50Q422 204 422 220Z"  horiz-adv-x="521" vert-adv-y="862"  />

      
      <glyph glyph-name="unif5" unicode="&#xf5;" d="M432 496L363 496L363 554Q363 567 352.50 575.50Q342 584 329 584Q316 584 305.50 575.50Q295 567 295 554Q295 515 263.50 491Q232 467 192 467Q152 467 122 490Q89 515 89 554L89 613L158 613L158 554Q158 542 168.50 533.50Q179 525 192 525Q205 525 215.50 533.50Q226 542 226 554Q226 594 257 618Q288 642 329 642Q370 642 401 618Q432 594 432 554L432 496M503 220Q503 171 467.50 137Q432 103 382 103L139 103Q89 103 53.50 137Q18 171 18 220L18 298Q18 346 53 380Q88 414 139 414L382 414Q433 414 468 380Q503 346 503 298L503 220M422 220L422 298Q422 314 410.50 325.50Q399 337 382 337L139 337Q122 337 110.50 325.50Q99 314 99 298L99 220Q99 204 110.50 192.50Q122 181 139 181L382 181Q399 181 410.50 192.50Q422 204 422 220Z"  horiz-adv-x="521" vert-adv-y="862"  />

      
      <glyph glyph-name="unif6" unicode="&#xf6;" d="M369 515L292 515L292 593L369 593L369 515M229 515L152 515L152 593L229 593L229 515M503 220Q503 171 467.50 137Q432 103 382 103L139 103Q89 103 53.50 137Q18 171 18 220L18 298Q18 346 53 380Q88 414 139 414L382 414Q433 414 468 380Q503 346 503 298L503 220M422 220L422 298Q422 314 410.50 325.50Q399 337 382 337L139 337Q122 337 110.50 325.50Q99 314 99 298L99 220Q99 204 110.50 192.50Q122 181 139 181L382 181Q399 181 410.50 192.50Q422 204 422 220Z"  horiz-adv-x="521" vert-adv-y="862"  />

      
      <glyph glyph-name="unif7" unicode="&#xf7;" d="M215 378L137 378L137 456L215 456L215 378M332 261L20 261L20 339L332 339L332 261M215 144L137 144L137 222L215 222L215 144Z"  horiz-adv-x="352" vert-adv-y="862"  />

      
      <glyph glyph-name="unif8" unicode="&#xf8;" d="M503 220Q503 171 467.50 137Q432 103 382 103L139 103Q89 103 53.50 137Q18 171 18 220L18 298Q18 346 53 380Q88 414 139 414L382 414Q433 414 468 380Q503 346 503 298L503 220M422 220L422 298Q422 314 410.50 325.50Q399 337 382 337L365 337L247 181L382 181Q399 181 410.50 192.50Q422 204 422 220M265 337L139 337Q122 337 110.50 325.50Q99 314 99 298L99 220Q99 204 110.50 192.50Q122 181 139 181L149 181L265 337Z"  horiz-adv-x="521" vert-adv-y="862"  />

      
      <glyph glyph-name="unif9" unicode="&#xf9;" d="M327 479L249 479L132 635L210 635L327 479M442 219Q442 170 408 135.50Q374 101 327 101L133 101Q85 101 51.50 135.50Q18 170 18 219L18 414L95 414L95 219Q95 202 106 191Q117 180 133 180L327 180Q342 180 353.50 191Q365 202 365 219L365 414L442 414L442 219Z"  horiz-adv-x="460" vert-adv-y="862"  />

      
      <glyph glyph-name="unifa" unicode="&#xfa;" d="M327 635L210 479L132 479L249 635L327 635M442 219Q442 170 408 135.50Q374 101 327 101L133 101Q85 101 51.50 135.50Q18 170 18 219L18 414L95 414L95 219Q95 202 106 191Q117 180 133 180L327 180Q342 180 353.50 191Q365 202 365 219L365 414L442 414L442 219Z"  horiz-adv-x="460" vert-adv-y="862"  />

      
      <glyph glyph-name="unifb" unicode="&#xfb;" d="M390 479L289 479L228 560L170 479L69 479L182 635L274 635L390 479M442 219Q442 170 408 135.50Q374 101 327 101L133 101Q85 101 51.50 135.50Q18 170 18 219L18 414L95 414L95 219Q95 202 106 191Q117 180 133 180L327 180Q342 180 353.50 191Q365 202 365 219L365 414L442 414L442 219Z"  horiz-adv-x="460" vert-adv-y="862"  />

      
      <glyph glyph-name="unifc" unicode="&#xfc;" d="M338 515L261 515L261 593L338 593L338 515M198 515L121 515L121 593L198 593L198 515M442 219Q442 170 408 135.50Q374 101 327 101L133 101Q85 101 51.50 135.50Q18 170 18 219L18 414L95 414L95 219Q95 202 106 191Q117 180 133 180L327 180Q342 180 353.50 191Q365 202 365 219L365 414L442 414L442 219Z"  horiz-adv-x="460" vert-adv-y="862"  />

      
      <glyph glyph-name="unifd" unicode="&#xfd;" d="M327 635L210 479L132 479L249 635L327 635M442 101Q442 53 408 18.50Q374-16 327-16L18-16L18 62L327 62Q342 62 353.50 73.50Q365 85 365 101L365 122Q329 101 288 101L133 101Q85 101 51.50 135.50Q18 170 18 219L18 414L95 414L95 219Q95 202 106 190.50Q117 179 133 179L288 179Q320 179 342.50 202Q365 225 365 258L365 414L442 414L442 101Z"  horiz-adv-x="460" vert-adv-y="862"  />

      
      <glyph glyph-name="unife" unicode="&#xfe;" d="M600 290Q600 241 566 207Q532 173 483 173L143 173Q118 173 97 182L97 105L20 105L20 494L97 494L97 405Q118 413 143 413L483 413Q532 413 566 379Q600 345 600 296L600 290M522 290L522 296Q522 335 483 335L142 335Q104 335 104 296L104 290Q104 251 143 251L483 251Q499 251 510.50 262.50Q522 274 522 290Z"  horiz-adv-x="613" vert-adv-y="862"  />

      
      <glyph glyph-name="uniff" unicode="&#xff;" d="M338 515L261 515L261 593L338 593L338 515M198 515L121 515L121 593L198 593L198 515M442 101Q442 53 408 18.50Q374-16 327-16L18-16L18 62L327 62Q342 62 353.50 73.50Q365 85 365 101L365 122Q329 101 288 101L133 101Q85 101 51.50 135.50Q18 170 18 219L18 414L95 414L95 219Q95 202 106 190.50Q117 179 133 179L288 179Q320 179 342.50 202Q365 225 365 258L365 414L442 414L442 101Z"  horiz-adv-x="460" vert-adv-y="862"  />

      

  </font>
</defs>
</svg>
